<svg id="meshDevIcon" data-name="meshDevIcon" xmlns="http://www.w3.org/2000/svg" xmlns:xlink="http://www.w3.org/1999/xlink" viewBox="0 0 119 119"><defs><style>.cls-1{fill:#f0f2f5;}.cls-2{fill:url(#meshDevSvgabc);}</style><linearGradient id="meshDevSvgabc" x1="45.38" y1="39.66" x2="88.27" y2="113.95" gradientUnits="userSpaceOnUse"><stop offset="0" stop-color="#8a8a8a"/><stop offset="0.24" stop-color="#6a6a6a"/><stop offset="0.57" stop-color="#474747"/><stop offset="0.83" stop-color="#313131"/><stop offset="1" stop-color="#292929"/></linearGradient></defs><title>topo_icon</title><circle class="cls-1" cx="59.5" cy="59.5" r="59.5"/><path class="cls-2" d="M72.32,51.43a3.05,3.05,0,0,1-4,1.42,3,3,0,0,1-1.55-1.69,3,3,0,0,1,.1-2.29,5.09,5.09,0,0,0,0-4.58,5.24,5.24,0,0,0-3.72-2.74,3,3,0,1,1,1-5.92l.09,0a11.32,11.32,0,0,1,8,5.91,11.06,11.06,0,0,1,.13,9.87Zm13.6,0a3,3,0,0,1-4,1.44,3,3,0,0,1-1.56-1.69,3,3,0,0,1,.1-2.31,12.58,12.58,0,0,0-.14-11.25,12.88,12.88,0,0,0-9.12-6.73,3,3,0,0,1-2-1.24,3,3,0,0,1-.49-2.25A3,3,0,0,1,72.25,25h0a18.9,18.9,0,0,1,13.4,9.91,18.52,18.52,0,0,1,.23,16.53Zm-40,15.66V48.89a3.69,3.69,0,1,1,7.37,0v18.2h50.84a8.06,8.06,0,0,1,8.1,8V95.49a8.06,8.06,0,0,1-8.1,8H39.31a8.07,8.07,0,0,1-8.11-8V75.11a8.07,8.07,0,0,1,8.11-8h6.63ZM86.46,92.58a3.64,3.64,0,1,0-3.68-3.64,3.67,3.67,0,0,0,1.09,2.59,3.64,3.64,0,0,0,2.59,1Zm-14.73,0a4,4,0,0,0,5-2.15,3.61,3.61,0,0,0-1.86-4.81,6.34,6.34,0,0,0-3.14-.32,3.64,3.64,0,1,0,0,7.28Zm29.47,0a3.64,3.64,0,1,0-3.64-3.64,3.64,3.64,0,0,0,3.64,3.64Zm0,0" transform="translate(-12.25 -12.25)"/></svg>